<svg width="160" height="46" viewBox="0 0 160 46" fill="none" xmlns="http://www.w3.org/2000/svg">
<path d="M23.5289 20.0795C28.0232 18.0142 31.5406 14.5097 33.5598 10.129C32.2571 8.81485 30.5635 7.87614 28.7398 7.31291L27.7628 7C27.6976 7.12516 27.6324 7.31291 27.6324 7.43808C26.0692 11.6936 22.8776 15.1355 18.5787 17.0755C15.5825 18.4523 13.3679 20.9555 12.3257 23.9594L12 24.8982C12.1302 24.9607 12.3257 25.0233 12.4559 25.0233C13.6935 25.4614 14.931 26.0245 16.1035 26.713C17.7319 23.8969 20.3373 21.5188 23.5289 20.0795Z" fill="#1A5B2A"/>
<path d="M42.4181 20.333C40.0081 23.8375 36.6862 26.6536 32.5827 28.5311C29.2608 30.033 26.7206 32.8492 25.5481 36.2286L25.2224 37.2924C26.46 38.3562 27.9581 39.1698 29.5865 39.6705L30.5635 39.9834C30.6286 39.8582 30.6938 39.6705 30.6938 39.5453C32.2571 35.2899 35.4487 31.8479 39.7476 29.9079C42.7438 28.5311 45.0235 26.0278 46.0005 23.024L46.3263 22.0853C44.9584 21.7097 43.6556 21.0839 42.4181 20.333Z" fill="#1A5B2A"/>
<path d="M22.617 34.0345C24.2453 30.2796 27.2415 27.2131 31.0845 25.4608C34.6018 23.8337 37.533 21.3305 39.5522 18.264C38.0541 16.8872 36.8165 15.3227 35.9046 13.4453C33.4946 17.7008 29.7168 21.1428 25.0921 23.2705C22.4216 24.4595 20.2721 26.5247 18.9694 29.028C20.4024 30.3422 21.5748 31.9692 22.4867 33.7841C22.4867 33.7841 22.5519 33.9092 22.617 34.0345Z" fill="#1A5B2A"/>
<path d="M54.0886 30.9871H65.0652V28.0639H57.6227V15.2466H54.0886V30.9871Z" fill="#1A5B2A"/>
<path d="M76.5332 19.6504H73.2566V25.8566C73.2566 27.2958 72.2503 28.3751 70.8226 28.3751C69.4886 28.3751 68.5524 27.3857 68.5524 26.0141V19.6504H65.2992V26.7111C65.2992 29.2971 67.0311 31.1634 69.6758 31.1634C71.2907 31.1634 72.6013 30.4889 73.2566 29.4095V30.9836H76.5332V19.6504Z" fill="#1A5B2A"/>
<path d="M77.7503 30.9872H81.0269V24.5561C81.0269 23.0944 81.8929 22.1275 83.2503 22.1275C84.5142 22.1275 85.3099 23.0944 85.3099 24.5561V30.9872H88.5865V24.5561C88.5865 23.0944 89.4525 22.1275 90.8099 22.1275C92.0738 22.1275 92.8929 23.0944 92.8929 24.5561V30.9872H96.1461V23.5667C96.1461 21.2955 94.4844 19.4741 91.9099 19.4741C90.0142 19.4741 88.5397 20.441 87.978 21.5429C87.4163 20.1937 86.2227 19.4741 84.3737 19.4741C82.7823 19.4741 81.6588 20.2162 81.0269 21.2506V19.654H77.7503V30.9872Z" fill="#1A5B2A"/>
<path d="M97.2625 14.7261V18.0316H100.726V14.7261H97.2625ZM97.3561 30.9838H100.633V19.6506H97.3561V30.9838Z" fill="#1A5B2A"/>
<path d="M101.854 30.9872H105.131V24.7809C105.131 23.3193 106.137 22.2624 107.565 22.2624C108.922 22.2624 109.835 23.2518 109.835 24.6235V30.9872H113.111V23.9264C113.111 21.318 111.379 19.4741 108.711 19.4741C107.097 19.4741 105.786 20.1262 105.131 21.2281V19.654H101.854V30.9872Z" fill="#1A5B2A"/>
<path d="M119.945 31.1671C123.573 31.1671 126.171 28.6936 126.171 25.3206C126.171 21.9476 123.573 19.4741 119.945 19.4741C116.318 19.4741 113.72 21.9476 113.72 25.3206C113.72 28.6936 116.318 31.1671 119.945 31.1671ZM119.945 28.4687C118.19 28.4687 116.997 27.187 116.997 25.3206C116.997 23.4317 118.19 22.15 119.945 22.15C121.701 22.15 122.895 23.4317 122.895 25.3206C122.895 27.187 121.701 28.4687 119.945 28.4687Z" fill="#1A5B2A"/>
<path d="M138.038 19.6504H134.761V25.8566C134.761 27.2958 133.755 28.3751 132.328 28.3751C130.993 28.3751 130.057 27.3857 130.057 26.0141V19.6504H126.804V26.7111C126.804 29.2971 128.536 31.1634 131.18 31.1634C132.796 31.1634 134.106 30.4889 134.761 29.4095V30.9836H138.038V19.6504Z" fill="#1A5B2A"/>
<path d="M143.562 31.1671C146.323 31.1671 148.149 29.7504 148.149 27.5917C148.149 22.4648 141.689 25.0957 141.689 22.7796C141.689 22.0601 142.322 21.6778 143.234 21.6778C144.123 21.6778 145.036 22.195 145.176 23.1619H148.009C147.892 20.9357 145.972 19.4741 143.141 19.4741C140.729 19.4741 138.928 20.8908 138.928 22.8921C138.928 27.6592 145.27 25.3881 145.27 27.7042C145.27 28.3338 144.568 28.806 143.562 28.806C142.345 28.806 141.525 28.1764 141.408 27.1645H138.6C138.717 29.6155 140.683 31.1671 143.562 31.1671Z" fill="#1A5B2A"/>
</svg>
