<svg width="160" height="46" viewBox="0 0 160 46" fill="none" xmlns="http://www.w3.org/2000/svg">
<path d="M20.1164 28.3333C25.6851 28.3333 30.1996 24.0055 30.1996 18.6667C30.1996 13.328 25.6851 9 20.1164 9H6V28.3333H20.1164Z" fill="#80B021"/>
<path d="M6 9L30.1996 38H14.0665L6 28.3333V9Z" fill="#80B021"/>
<path d="M21.9935 28.1662C21.3853 28.2759 20.7578 28.3333 20.1164 28.3333H6V9L21.9935 28.1662Z" fill="#A0CE45"/>
<path d="M46.7959 30.2736C45.3843 30.2736 44.1716 30.0029 43.1578 29.4616C42.1568 28.908 41.3869 28.1329 40.8479 27.1363C40.3089 26.1274 40.0393 24.9402 40.0393 23.5746C40.0393 22.209 40.3089 21.0279 40.8479 20.0313C41.3869 19.0348 42.1568 18.2658 43.1578 17.7245C44.1716 17.1709 45.3843 16.894 46.7959 16.894C47.7071 16.894 48.5669 17.0293 49.3754 17.3C50.1967 17.5707 50.8705 17.9583 51.3967 18.4627L50.5881 20.345C50.0107 19.8776 49.4204 19.5392 48.8172 19.33C48.214 19.1086 47.566 18.9979 46.873 18.9979C45.4998 18.9979 44.4539 19.3977 43.7353 20.1974C43.0166 20.9848 42.6573 22.1106 42.6573 23.5746C42.6573 25.0386 43.0166 26.1706 43.7353 26.9702C44.4539 27.7699 45.4998 28.1698 46.873 28.1698C47.566 28.1698 48.214 28.0652 48.8172 27.856C49.4204 27.6346 50.0107 27.2901 50.5881 26.8226L51.3967 28.705C50.8705 29.1971 50.1967 29.5847 49.3754 29.8676C48.5669 30.1383 47.7071 30.2736 46.7959 30.2736Z" fill="#80B021"/>
<path d="M56.9323 30.2752C55.9569 30.2752 55.1099 30.0845 54.3913 29.7031C53.6726 29.3217 53.1144 28.7804 52.7166 28.0791C52.3187 27.3655 52.1199 26.5289 52.1199 25.5693C52.1199 24.6097 52.3187 23.7792 52.7166 23.0779C53.1144 22.3767 53.6726 21.8354 54.3913 21.4539C55.1099 21.0725 55.9569 20.8818 56.9323 20.8818C57.9076 20.8818 58.7546 21.0725 59.4732 21.4539C60.1919 21.8354 60.7501 22.3767 61.148 23.0779C61.5458 23.7792 61.7446 24.6097 61.7446 25.5693C61.7446 26.5289 61.5458 27.3655 61.148 28.0791C60.7501 28.7804 60.1919 29.3217 59.4732 29.7031C58.7546 30.0845 57.9076 30.2752 56.9323 30.2752ZM56.9323 28.522C57.651 28.522 58.2284 28.276 58.6647 27.7838C59.1011 27.2795 59.3192 26.5413 59.3192 25.5693C59.3192 24.5851 59.1011 23.853 58.6647 23.3732C58.2284 22.881 57.651 22.635 56.9323 22.635C56.2137 22.635 55.6361 22.881 55.1998 23.3732C54.7634 23.853 54.5453 24.5851 54.5453 25.5693C54.5453 26.5413 54.7634 27.2795 55.1998 27.7838C55.6361 28.276 56.2137 28.522 56.9323 28.522Z" fill="#80B021"/>
<path d="M63.7683 30.0907V21.0664H66.1168V22.4505C66.3991 21.9583 66.7906 21.577 67.291 21.3063C67.7915 21.0234 68.369 20.8818 69.0235 20.8818C70.4352 20.8818 71.3591 21.4724 71.7954 22.6535C72.0906 22.0998 72.5142 21.6693 73.066 21.3617C73.6178 21.0418 74.2466 20.8818 74.9524 20.8818C77.0699 20.8818 78.1285 22.1183 78.1285 24.5912V30.0907H75.7223V24.6835C75.7223 23.9945 75.6004 23.49 75.3566 23.1702C75.1257 22.8504 74.7278 22.6904 74.1631 22.6904C73.5344 22.6904 73.0402 22.9057 72.6809 23.3363C72.3216 23.7546 72.1419 24.339 72.1419 25.0895V30.0907H69.7357V24.6835C69.7357 23.9945 69.6138 23.49 69.37 23.1702C69.139 22.8504 68.7476 22.6904 68.1958 22.6904C67.5669 22.6904 67.0729 22.9057 66.7135 23.3363C66.3542 23.7546 66.1745 24.339 66.1745 25.0895V30.0907H63.7683Z" fill="#80B021"/>
<path d="M80.6495 30.0907V21.0664H82.9979V22.4505C83.2803 21.9583 83.6717 21.577 84.1722 21.3063C84.6726 21.0234 85.2502 20.8818 85.9046 20.8818C87.3163 20.8818 88.2402 21.4724 88.6766 22.6535C88.9717 22.0998 89.3953 21.6693 89.9471 21.3617C90.4989 21.0418 91.1277 20.8818 91.8335 20.8818C93.951 20.8818 95.0098 22.1183 95.0098 24.5912V30.0907H92.6036V24.6835C92.6036 23.9945 92.4816 23.49 92.2378 23.1702C92.0068 22.8504 91.609 22.6904 91.0443 22.6904C90.4155 22.6904 89.9214 22.9057 89.5621 23.3363C89.2028 23.7546 89.0231 24.339 89.0231 25.0895V30.0907H86.6169V24.6835C86.6169 23.9945 86.495 23.49 86.2511 23.1702C86.0202 22.8504 85.6287 22.6904 85.0769 22.6904C84.4481 22.6904 83.954 22.9057 83.5947 23.3363C83.2353 23.7546 83.0557 24.339 83.0557 25.0895V30.0907H80.6495Z" fill="#80B021"/>
<path d="M100.591 30.2752C99.9108 30.2752 99.3012 30.1521 98.7623 29.9061C98.2361 29.6478 97.819 29.3032 97.511 28.8727C97.2159 28.4421 97.0682 27.956 97.0682 27.4147C97.0682 26.7504 97.2479 26.2275 97.6072 25.8461C97.9665 25.4525 98.5505 25.1694 99.359 24.9972C100.167 24.825 101.252 24.7388 102.612 24.7388H103.286V24.3513C103.286 23.7362 103.145 23.2933 102.862 23.0226C102.58 22.7519 102.105 22.6166 101.438 22.6166C100.912 22.6166 100.373 22.6965 99.8209 22.8565C99.2691 23.0041 98.711 23.2379 98.1462 23.5577L97.4533 21.9891C97.7869 21.7677 98.1783 21.577 98.6275 21.417C99.0895 21.2448 99.5707 21.1156 100.071 21.0295C100.585 20.9311 101.066 20.8818 101.515 20.8818C102.888 20.8818 103.908 21.1894 104.576 21.8046C105.243 22.4074 105.577 23.3486 105.577 24.6281V30.0907H103.324V28.6512C103.106 29.1556 102.76 29.5555 102.285 29.8507C101.81 30.1337 101.245 30.2752 100.591 30.2752ZM101.091 28.6881C101.72 28.6881 102.24 28.479 102.651 28.0607C103.074 27.6423 103.286 27.1134 103.286 26.4736V26.0676H102.631C101.425 26.0676 100.585 26.1598 100.11 26.3444C99.6477 26.5166 99.4168 26.8365 99.4168 27.304C99.4168 27.71 99.5643 28.0422 99.8595 28.3006C100.155 28.5589 100.565 28.6881 101.091 28.6881Z" fill="#80B021"/>
<path d="M108.019 30.0907V21.0664H110.368V22.4689C110.689 21.9522 111.119 21.5585 111.658 21.2878C112.209 21.0171 112.826 20.8818 113.506 20.8818C115.726 20.8818 116.835 22.1183 116.835 24.5912V30.0907H114.429V24.7019C114.429 24.0007 114.288 23.49 114.006 23.1702C113.736 22.8504 113.313 22.6904 112.735 22.6904C112.03 22.6904 111.465 22.9057 111.042 23.3363C110.631 23.7546 110.426 24.3144 110.426 25.0157V30.0907H108.019Z" fill="#80B021"/>
<path d="M122.899 30.2717C122.078 30.2717 121.353 30.081 120.723 29.6996C120.108 29.3181 119.627 28.7768 119.28 28.0756C118.934 27.362 118.761 26.5254 118.761 25.5658C118.761 24.5938 118.934 23.7633 119.28 23.0744C119.627 22.3731 120.108 21.8318 120.723 21.4504C121.353 21.069 122.078 20.8783 122.899 20.8783C123.566 20.8783 124.169 21.0198 124.708 21.3028C125.247 21.5857 125.652 21.961 125.921 22.4285V17.0767H128.327V30.0871H125.979V28.5923C125.722 29.109 125.318 29.5211 124.766 29.8288C124.214 30.124 123.592 30.2717 122.899 30.2717ZM123.573 28.5185C124.292 28.5185 124.868 28.2725 125.305 27.7803C125.741 27.2759 125.959 26.5377 125.959 25.5658C125.959 24.5815 125.741 23.8495 125.305 23.3697C124.868 22.8775 124.292 22.6315 123.573 22.6315C122.854 22.6315 122.276 22.8775 121.84 23.3697C121.403 23.8495 121.186 24.5815 121.186 25.5658C121.186 26.5377 121.403 27.2759 121.84 27.7803C122.276 28.2725 122.854 28.5185 123.573 28.5185Z" fill="#80B021"/>
<path d="M134.46 29.3496V25.6033H130.648V23.9793H134.46V20.3438H136.231V23.9793H140.042V25.6033H136.231V29.3496H134.46Z" fill="#80B021"/>
<path d="M142.595 30.0871V17.0767H148.486C149.974 17.0767 151.123 17.4212 151.931 18.1101C152.74 18.7868 153.144 19.7402 153.144 20.9706C153.144 21.9425 152.882 22.7483 152.355 23.3881C151.829 24.0156 151.072 24.44 150.084 24.6615C150.738 24.8584 151.277 25.332 151.7 26.0825L153.972 30.0871H151.258L148.91 25.9348C148.678 25.5288 148.403 25.252 148.081 25.1044C147.773 24.9568 147.375 24.8829 146.888 24.8829H145.06V30.0871H142.595ZM145.06 23.1298H148.062C149.859 23.1298 150.757 22.4285 150.757 21.0259C150.757 19.6357 149.859 18.9406 148.062 18.9406H145.06V23.1298Z" fill="#80B021"/>
</svg>
