<svg width="40" height="40" viewBox="0 0 40 40" fill="none" xmlns="http://www.w3.org/2000/svg">
<path fill-rule="evenodd" clip-rule="evenodd" d="M31.5135 6.66895C32.0658 6.66895 32.5135 7.11666 32.5135 7.66895V10.671C32.5135 11.2233 32.0658 11.671 31.5135 11.671H27.6777C27.1254 11.671 26.6777 11.2233 26.6777 10.671V7.66894C26.6777 7.11666 27.1254 6.66895 27.6777 6.66895L31.5135 6.66895Z" stroke="black" stroke-linecap="round" stroke-linejoin="round"/>
<path d="M24.1767 18.341V17.542C24.1767 16.3695 24.557 15.2286 25.2605 14.2907L27.4301 11.3979" stroke="black" stroke-linecap="round" stroke-linejoin="round"/>
<path d="M31.7612 11.3979L33.9308 14.2907C34.6343 15.2287 35.0146 16.3696 35.0146 17.5421V18.341" stroke="black" stroke-linecap="round" stroke-linejoin="round"/>
<path d="M17.5072 18.341H2.50098" stroke="black" stroke-linecap="round" stroke-linejoin="round"/>
<rect x="17.5073" y="5.00244" width="5.00208" height="20.0083" rx="1.5" stroke="black" stroke-linecap="round" stroke-linejoin="round"/>
<path d="M5.00201 18.3408L7.26444 29.6529C7.88791 32.7704 10.6252 35.0144 13.8044 35.0144H26.2122C29.3914 35.0144 32.1286 32.7704 32.7521 29.653L35.0145 18.3408" stroke="black" stroke-linecap="round" stroke-linejoin="round"/>
<path d="M5.00201 18.3406V16.6732C5.00201 14.3711 6.86827 12.5048 9.17042 12.5048C9.17042 10.2027 11.0367 8.33643 13.3388 8.33643C15.641 8.33643 17.5072 10.2027 17.5072 12.5048" stroke="black" stroke-linecap="round" stroke-linejoin="round"/>
<path d="M37.5156 18.341H22.5093" stroke="black" stroke-linecap="round" stroke-linejoin="round"/>
</svg>
