<svg width="40" height="40" viewBox="0 0 40 40" fill="none" xmlns="http://www.w3.org/2000/svg">
<path fill-rule="evenodd" clip-rule="evenodd" d="M26.25 19.1665C26.25 18.4761 25.6904 17.9165 25 17.9165H22.5V15.4165C22.5 14.7261 21.9404 14.1665 21.25 14.1665H18.75C18.0596 14.1665 17.5 14.7261 17.5 15.4165V17.9165H15C14.3096 17.9165 13.75 18.4761 13.75 19.1665V21.6665C13.75 22.3569 14.3096 22.9165 15 22.9165H17.5V25.4165C17.5 26.1069 18.0596 26.6665 18.75 26.6665H21.25C21.9404 26.6665 22.5 26.1069 22.5 25.4165V22.9165H25C25.6904 22.9165 26.25 22.3569 26.25 21.6665V19.1665Z" stroke="black" stroke-linecap="round" stroke-linejoin="round"/>
<path fill-rule="evenodd" clip-rule="evenodd" d="M33.3333 21.7013C33.3333 27.9925 25.5919 32.666 21.9002 34.5424C20.709 35.1513 19.2982 35.1526 18.106 34.5457C14.4168 32.6711 6.66663 27.9862 6.66663 21.7013V12.6155C6.67888 11.7641 7.32367 11.0552 8.17013 10.9627C11.7067 10.6939 15.0972 9.44004 17.9576 7.34307C19.1697 6.44098 20.8301 6.44098 22.0422 7.34307C24.9026 9.44004 28.2932 10.6939 31.8297 10.9627C32.6762 11.0552 33.321 11.764 33.3333 12.6155V21.7013Z" stroke="black" stroke-linecap="round" stroke-linejoin="round"/>
</svg>
