<svg width="161" height="46" viewBox="0 0 161 46" fill="none" xmlns="http://www.w3.org/2000/svg">
<path d="M45.2767 23.3395C45.2767 32.3577 37.7886 39.6791 28.5384 39.6791C19.288 39.6791 11.8 32.3577 11.8 23.3395C11.8 14.3212 19.288 7 28.5384 7C37.7886 7 45.2767 14.3212 45.2767 23.3395Z" stroke="#592814" stroke-width="3"/>
<path d="M35.0162 29.6642C31.5865 33.0134 27.7188 35.181 24.3082 36.0373C20.853 36.905 18.2159 36.3699 16.7047 34.8942C15.1934 33.4184 14.6454 30.8432 15.5339 27.469C16.4109 24.1385 18.6306 20.3614 22.0603 17.0122C25.4899 13.6631 29.3577 11.4954 32.7682 10.639C36.2235 9.77136 38.8606 10.3065 40.3718 11.7823C41.8829 13.258 42.431 15.8332 41.5425 19.2074C40.6654 22.5379 38.4459 26.3149 35.0162 29.6642Z" stroke="#592814" stroke-width="3"/>
<path d="M35.016 17.0122C38.4457 20.3614 40.6653 24.1384 41.5423 27.469C42.4308 30.8431 41.8828 33.4184 40.3716 34.8942C38.8604 36.3699 36.2233 36.9051 32.7681 36.0373C29.3575 35.181 25.4898 33.0134 22.0601 29.6641C18.6305 26.315 16.4108 22.5379 15.5338 19.2075C14.6453 15.8332 15.1933 13.2579 16.7044 11.7823C18.2156 10.3065 20.8527 9.77135 24.308 10.639C27.7185 11.4954 31.5864 13.663 35.016 17.0122Z" stroke="#592814" stroke-width="3"/>
<path d="M62.9155 31.5494C66.8792 31.5494 69.5554 29.5278 69.5554 26.298C69.5554 19.4688 60.2645 22.378 60.2645 18.7785C60.2645 17.7676 61.1987 17.0773 62.6883 17.0773C64.3798 17.0773 65.4401 17.9649 65.5664 19.3209H69.1767C69.0757 16.0418 66.5005 13.897 62.6883 13.897C59.1033 13.897 56.5785 15.9186 56.5785 18.7785C56.5785 25.5584 65.7431 22.9697 65.7431 26.3473C65.7431 27.6541 64.607 28.3444 62.9155 28.3444C61.0472 28.3444 59.8606 27.2349 59.7092 25.4845H56.0736C56.2251 29.1579 58.9013 31.5494 62.9155 31.5494Z" fill="#592814"/>
<path d="M70.4148 36.381H73.9241V30.242C74.6057 31.0803 75.8428 31.5487 77.2819 31.5487C80.9426 31.5487 83.4167 29.0093 83.4167 25.1386C83.4167 21.2678 81.1445 18.7285 77.5848 18.7285C75.9438 18.7285 74.6815 19.3202 73.9241 20.2817V18.9257H70.4148V36.381ZM76.8526 28.5902C74.9591 28.5902 73.7221 27.2096 73.7221 25.1386C73.7221 23.043 74.9591 21.6623 76.8526 21.6623C78.6957 21.6623 79.9579 23.043 79.9579 25.1386C79.9579 27.2096 78.6957 28.5902 76.8526 28.5902Z" fill="#592814"/>
<path d="M84.2655 31.3539H87.7749V24.5493C87.7749 22.9467 88.8604 21.7881 90.4005 21.7881C91.8648 21.7881 92.8747 22.8728 92.8747 24.3767V31.3539H96.3839V23.6125C96.3839 20.7526 94.5157 18.7309 91.6629 18.7309C89.8956 18.7309 88.507 19.4458 87.7749 20.654V13.5288H84.2655V31.3539Z" fill="#592814"/>
<path d="M106.201 27.1356C105.923 28.1958 104.989 28.7382 103.576 28.7382C101.808 28.7382 100.672 27.6534 100.42 25.9029H109.559C109.584 25.6317 109.609 25.2618 109.609 24.7935C109.609 21.9582 107.817 18.7285 103.323 18.7285C99.0059 18.7285 97.0366 21.9582 97.0366 25.1139C97.0366 28.2451 99.2583 31.5487 103.576 31.5487C106.706 31.5487 109.13 29.8229 109.635 27.1356H106.201ZM103.323 21.2433C105.015 21.2433 105.999 22.3526 106.1 23.7333H100.47C100.773 22.0075 101.732 21.2433 103.323 21.2433Z" fill="#592814"/>
<path d="M118.812 21.7842V18.9243H117.002C115.462 18.9243 114.503 19.442 113.821 20.9953V18.9243H110.286V31.3501H113.821V25.3097C113.821 23.1894 114.604 21.7842 116.345 21.7842H118.812Z" fill="#592814"/>
<path d="M130.931 18.9243H127.396V25.7289C127.396 27.3068 126.31 28.4902 124.77 28.4902C123.332 28.4902 122.322 27.4054 122.322 25.9014V18.9243H118.812V26.6658C118.812 29.5009 120.68 31.5473 123.533 31.5473C125.276 31.5473 126.689 30.8077 127.396 29.6243V31.3501H130.931V18.9243Z" fill="#592814"/>
<path d="M132.446 31.3539H135.955V13.5288H132.446V31.3539Z" fill="#592814"/>
<path d="M145.974 27.1356C145.696 28.1958 144.762 28.7382 143.348 28.7382C141.581 28.7382 140.445 27.6534 140.193 25.9029H149.331C149.358 25.6317 149.382 25.2618 149.382 24.7935C149.382 21.9582 147.59 18.7285 143.096 18.7285C138.778 18.7285 136.81 21.9582 136.81 25.1139C136.81 28.2451 139.032 31.5487 143.348 31.5487C146.479 31.5487 148.903 29.8229 149.407 27.1356H145.974ZM143.096 21.2433C144.788 21.2433 145.772 22.3526 145.873 23.7333H140.243C140.546 22.0075 141.505 21.2433 143.096 21.2433Z" fill="#592814"/>
</svg>
