<svg width="161" height="46" viewBox="0 0 161 46" fill="none" xmlns="http://www.w3.org/2000/svg">
<path d="M30.3385 30.3766C36.9322 30.3766 42.2773 25.1439 42.2773 18.6891C42.2773 17.9575 42.2086 17.2416 42.0773 16.5474C41.3681 16.4188 40.6368 16.3516 39.8895 16.3516C33.2959 16.3516 27.9508 21.5842 27.9508 28.0391C27.9508 28.7706 28.0194 29.4864 28.1507 30.1808C28.86 30.3093 29.5913 30.3766 30.3385 30.3766Z" fill="#EF99AE"/>
<path fill-rule="evenodd" clip-rule="evenodd" d="M28.1511 30.1792C22.6023 29.1732 18.4 24.4108 18.4 18.6875C18.4 12.2327 23.7452 7 30.3388 7C36.1851 7 41.05 11.1138 42.0775 16.5458C41.3683 16.4173 40.6371 16.3499 39.8898 16.3499C33.2962 16.3499 27.9511 21.5826 27.9511 28.0375C27.9511 28.769 28.0197 29.4849 28.1511 30.1792Z" fill="#D71343"/>
<path fill-rule="evenodd" clip-rule="evenodd" d="M30.3389 30.375C36.9325 30.375 42.2776 25.1424 42.2776 18.6876C42.2776 17.956 42.209 17.2402 42.0776 16.5459C47.6264 17.5518 51.8287 22.3143 51.8287 28.0376C51.8287 34.4924 46.4835 39.7251 39.8899 39.7251C34.0436 39.7251 29.1787 35.6113 28.1512 30.1793C28.8604 30.3078 29.5916 30.375 30.3389 30.375Z" fill="#D71343"/>
<path d="M69.7204 30.9811C73.8002 30.9811 76.7404 28.7275 77.0366 25.3806H73.6178C73.3444 26.9871 71.7716 28.0805 69.7204 28.0805C67.1449 28.0805 65.162 26.3401 65.162 22.9932C65.162 19.6464 67.1449 17.8836 69.7204 17.8836C71.7261 17.8836 73.2987 18.977 73.5266 20.6058H77.1051C76.672 17.2366 73.7318 15.0054 69.7204 15.0054C65.4582 15.0054 61.7203 17.7275 61.7203 22.9932C61.7203 28.259 65.3899 30.9811 69.7204 30.9811Z" fill="#D71343"/>
<path d="M83.3816 19.3779C80.2363 19.3779 78.3673 21.1852 78.2306 23.4388H81.0568C81.1024 22.5017 81.809 21.6538 83.1993 21.6538C84.4985 21.6538 85.2506 22.3008 85.2506 23.2379C85.2506 23.7066 84.9543 24.0636 84.3845 24.0636H82.4472C79.9401 24.0636 78.2534 25.4023 78.2534 27.6112C78.2534 29.5301 79.7805 30.9804 82.0141 30.9804C83.5868 30.9804 84.8632 30.2887 85.2506 29.2401V30.8019H88.3959V23.5727C88.3959 21.0291 86.2763 19.3779 83.3816 19.3779ZM82.8118 28.7268C81.9229 28.7268 81.2848 28.2137 81.2848 27.4773C81.2848 26.6072 81.9685 26.0271 82.9258 26.0271H85.2506V26.1832C85.2506 27.6112 84.3617 28.7268 82.8118 28.7268Z" fill="#D71343"/>
<path d="M90.525 35.3537H93.6931V29.7978C94.3085 30.5564 95.4253 30.9804 96.7245 30.9804C100.029 30.9804 102.263 28.6822 102.263 25.1792C102.263 21.6761 100.212 19.3779 96.998 19.3779C95.5164 19.3779 94.3769 19.9134 93.6931 20.7836V19.5564H90.525V35.3537ZM96.337 28.3029C94.6276 28.3029 93.5107 27.0534 93.5107 25.1792C93.5107 23.2826 94.6276 22.0331 96.337 22.0331C98.0009 22.0331 99.1404 23.2826 99.1404 25.1792C99.1404 27.0534 98.0009 28.3029 96.337 28.3029Z" fill="#D71343"/>
<path d="M107.841 30.9804C110.531 30.9804 112.308 29.5747 112.308 27.4327C112.308 22.3454 106.018 24.9561 106.018 22.6578C106.018 21.9438 106.633 21.5646 107.522 21.5646C108.388 21.5646 109.277 22.0777 109.414 23.0372H112.172C112.058 20.8282 110.189 19.3779 107.431 19.3779C105.083 19.3779 103.328 20.7836 103.328 22.7694C103.328 27.4997 109.505 25.2461 109.505 27.5443C109.505 28.1691 108.821 28.6376 107.841 28.6376C106.656 28.6376 105.858 28.0128 105.744 27.0088H103.009C103.123 29.4408 105.038 30.9804 107.841 30.9804Z" fill="#D71343"/>
<path d="M124.821 19.5552H121.631V25.7134C121.631 27.1414 120.65 28.2124 119.26 28.2124C117.961 28.2124 117.049 27.2307 117.049 25.8696V19.5552H113.881V26.5613C113.881 29.1272 115.568 30.9792 118.143 30.9792C119.716 30.9792 120.992 30.3098 121.631 29.2388V30.8007H124.821V19.5552Z" fill="#D71343"/>
<path d="M127.101 30.8039H130.269V14.6719H127.101V30.8039Z" fill="#D71343"/>
<path d="M140.226 26.9864C139.975 27.9459 139.132 28.4368 137.856 28.4368C136.259 28.4368 135.234 27.4551 135.006 25.8708H143.257C143.279 25.6254 143.303 25.2907 143.303 24.8668C143.303 22.3008 141.684 19.3779 137.628 19.3779C133.73 19.3779 131.952 22.3008 131.952 25.1568C131.952 27.9906 133.958 30.9804 137.856 30.9804C140.681 30.9804 142.87 29.4186 143.325 26.9864H140.226ZM137.628 21.6538C139.154 21.6538 140.044 22.6578 140.135 23.9073H135.052C135.325 22.3454 136.192 21.6538 137.628 21.6538Z" fill="#D71343"/>
</svg>
