<svg width="161" height="46" viewBox="0 0 161 46" fill="none" xmlns="http://www.w3.org/2000/svg">
<path d="M33.2737 23.3628C30.6433 26.3164 26.8206 28.1753 22.566 28.1753C18.3112 28.1753 14.4885 26.3164 11.8581 23.3628C14.4885 20.4091 18.3112 18.5503 22.566 18.5503C26.8206 18.5503 30.6433 20.4091 33.2737 23.3628Z" fill="white"/>
<path fill-rule="evenodd" clip-rule="evenodd" d="M8.20001 32.9878C8.20001 25.0142 14.6318 18.5503 22.5658 18.5503C18.3112 18.5503 14.4885 20.4091 11.858 23.3628C14.4885 26.3164 18.3112 28.1753 22.5658 28.1753C26.8206 28.1753 30.6432 26.3164 33.2737 23.3628C35.5484 25.9171 36.9317 29.2901 36.9317 32.9878V38.4419C36.9317 39.1507 36.3599 39.7252 35.6547 39.7252H9.47697C8.77173 39.7252 8.20001 39.1507 8.20001 38.4419V32.9878Z" fill="#7CD4FD"/>
<path fill-rule="evenodd" clip-rule="evenodd" d="M17.1774 27.1251C15.1262 26.2903 13.3104 24.9932 11.858 23.3625C14.4885 20.4088 18.3112 18.55 22.5658 18.55C26.8206 18.55 30.6432 20.4088 33.2737 23.3625C35.5484 20.8083 36.9317 17.4352 36.9317 13.7375V8.28333C36.9317 7.57457 36.3599 7 35.6547 7H9.47697C8.77173 7 8.20001 7.57456 8.20001 8.28333V13.7375C8.20001 19.7961 11.9133 24.9829 17.1774 27.1251Z" fill="#4C89B9"/>
<path d="M59.3705 16.2651V30.8009H56.4695V24.6159H50.2737V30.8009H47.3727V16.2651H50.2737V22.2418H56.4695V16.2651H59.3705Z" fill="#4C89B9"/>
<path d="M67.3235 30.9885C66.2184 30.9885 65.2237 30.7456 64.3396 30.2597C63.4555 29.7599 62.7579 29.0588 62.2467 28.1563C61.7494 27.254 61.5008 26.2127 61.5008 25.0326C61.5008 23.8525 61.7563 22.8113 62.2674 21.9088C62.7924 21.0065 63.5038 20.3123 64.4018 19.8264C65.2998 19.3266 66.3012 19.0767 67.4064 19.0767C68.5116 19.0767 69.5132 19.3266 70.411 19.8264C71.309 20.3123 72.0135 21.0065 72.5246 21.9088C73.0496 22.8113 73.3121 23.8525 73.3121 25.0326C73.3121 26.2127 73.0427 27.254 72.5039 28.1563C71.9789 29.0588 71.2606 29.7599 70.3489 30.2597C69.4509 30.7456 68.4425 30.9885 67.3235 30.9885ZM67.3235 28.4479C67.8485 28.4479 68.3389 28.323 68.7948 28.0731C69.2645 27.8093 69.6374 27.4205 69.9138 26.9068C70.19 26.3932 70.3282 25.7684 70.3282 25.0326C70.3282 23.9358 70.038 23.0958 69.4579 22.5128C68.8915 21.9158 68.1938 21.6172 67.3649 21.6172C66.5361 21.6172 65.8385 21.9158 65.2721 22.5128C64.7195 23.0958 64.4433 23.9358 64.4433 25.0326C64.4433 26.1294 64.7126 26.9762 65.2513 27.5733C65.804 28.1563 66.4946 28.4479 67.3235 28.4479Z" fill="#4C89B9"/>
<path d="M86.2776 19.2681V30.805H83.3559V29.3473C82.9829 29.8471 82.4925 30.2428 81.8846 30.5344C81.2906 30.8121 80.6414 30.9509 79.9368 30.9509C79.0389 30.9509 78.2446 30.7635 77.5538 30.3886C76.8631 29.9999 76.3174 29.4376 75.9168 28.7018C75.53 27.9521 75.3366 27.0636 75.3366 26.0362V19.2681H78.2376V25.6196C78.2376 26.536 78.4656 27.244 78.9215 27.7438C79.3774 28.2297 79.999 28.4727 80.7864 28.4727C81.5876 28.4727 82.2163 28.2297 82.672 27.7438C83.1279 27.244 83.3559 26.536 83.3559 25.6196V19.2681H86.2776Z" fill="#4C89B9"/>
<path d="M92.0409 21.0566C92.4138 20.4459 92.8974 19.9668 93.4914 19.6197C94.0992 19.2727 94.7899 19.0991 95.5635 19.0991V22.1604H94.7968C93.8851 22.1604 93.1944 22.3756 92.7247 22.8059C92.2688 23.2363 92.0409 23.986 92.0409 25.055V30.8027H89.1398V19.2658H92.0409V21.0566Z" fill="#4C89B9"/>
<path d="M102.014 19.0767C102.871 19.0767 103.623 19.2502 104.273 19.5972C104.922 19.9304 105.433 20.3677 105.806 20.9092V19.2641H108.728V30.8844C108.728 31.9534 108.514 32.9044 108.086 33.7374C107.657 34.5843 107.015 35.2507 106.159 35.7366C105.302 36.2364 104.266 36.4863 103.05 36.4863C101.42 36.4863 100.08 36.1045 99.0303 35.3409C97.9942 34.5774 97.4071 33.5361 97.2689 32.2172H100.149C100.301 32.7448 100.626 33.1612 101.123 33.4667C101.634 33.786 102.249 33.9457 102.967 33.9457C103.81 33.9457 104.494 33.6889 105.019 33.1751C105.544 32.6753 105.806 31.9118 105.806 30.8844V29.0934C105.433 29.6349 104.915 30.0861 104.252 30.4471C103.603 30.8081 102.857 30.9885 102.014 30.9885C101.047 30.9885 100.163 30.7386 99.3618 30.2388C98.5606 29.739 97.9251 29.0379 97.4554 28.1355C96.9995 27.2192 96.7716 26.171 96.7716 24.9909C96.7716 23.8248 96.9995 22.7904 97.4554 21.888C97.9251 20.9856 98.5536 20.2914 99.3411 19.8055C100.142 19.3196 101.033 19.0767 102.014 19.0767ZM105.806 25.0326C105.806 24.3246 105.668 23.7206 105.392 23.2208C105.115 22.7071 104.743 22.3184 104.273 22.0546C103.803 21.7769 103.299 21.6381 102.76 21.6381C102.221 21.6381 101.724 21.77 101.268 22.0338C100.812 22.2975 100.439 22.6863 100.149 23.2C99.873 23.6998 99.7348 24.2967 99.7348 24.9909C99.7348 25.6851 99.873 26.2959 100.149 26.8236C100.439 27.3372 100.812 27.7329 101.268 28.0106C101.738 28.2882 102.235 28.427 102.76 28.427C103.299 28.427 103.803 28.2951 104.273 28.0314C104.743 27.7538 105.115 27.3649 105.392 26.8651C105.668 26.3515 105.806 25.7406 105.806 25.0326Z" fill="#4C89B9"/>
<path d="M114.462 15.3921V30.8025H111.561V15.3921H114.462Z" fill="#4C89B9"/>
<path d="M116.582 24.9909C116.582 23.8248 116.811 22.7904 117.266 21.888C117.736 20.9856 118.364 20.2914 119.152 19.8055C119.953 19.3196 120.844 19.0767 121.825 19.0767C122.682 19.0767 123.428 19.2502 124.063 19.5973C124.712 19.9444 125.23 20.3817 125.617 20.9092V19.2641H128.538V30.8011H125.617V29.1142C125.244 29.6557 124.726 30.1069 124.063 30.4679C123.414 30.815 122.661 30.9885 121.804 30.9885C120.837 30.9885 119.953 30.7386 119.152 30.2388C118.364 29.739 117.736 29.0379 117.266 28.1355C116.811 27.2192 116.582 26.171 116.582 24.9909ZM125.617 25.0326C125.617 24.3246 125.479 23.7206 125.203 23.2208C124.927 22.7071 124.554 22.3184 124.083 22.0546C123.614 21.7769 123.109 21.6381 122.571 21.6381C122.033 21.6381 121.534 21.77 121.079 22.0338C120.624 22.2975 120.25 22.6863 119.961 23.2C119.684 23.6998 119.546 24.2967 119.546 24.9909C119.546 25.6851 119.684 26.2959 119.961 26.8236C120.25 27.3372 120.624 27.7329 121.079 28.0106C121.548 28.2882 122.047 28.427 122.571 28.427C123.109 28.427 123.614 28.2951 124.083 28.0314C124.554 27.7538 124.927 27.3649 125.203 26.8651C125.479 26.3515 125.617 25.7406 125.617 25.0326Z" fill="#4C89B9"/>
<path d="M135.765 30.9885C134.826 30.9885 133.983 30.822 133.238 30.4887C132.491 30.1417 131.897 29.6765 131.455 29.0934C131.027 28.5104 130.792 27.8647 130.751 27.1567H133.673C133.727 27.601 133.942 27.9689 134.314 28.2605C134.701 28.552 135.178 28.6978 135.745 28.6978C136.297 28.6978 136.725 28.5867 137.029 28.3645C137.347 28.1425 137.506 27.8578 137.506 27.5108C137.506 27.1359 137.312 26.8582 136.926 26.6777C136.553 26.4834 135.952 26.2751 135.123 26.053C134.266 25.8447 133.562 25.6296 133.009 25.4074C132.471 25.1853 132.001 24.8451 131.601 24.387C131.214 23.9288 131.02 23.3111 131.02 22.5336C131.02 21.895 131.2 21.3119 131.559 20.7843C131.932 20.2568 132.457 19.8402 133.134 19.5348C133.825 19.2293 134.633 19.0767 135.558 19.0767C136.926 19.0767 138.017 19.4237 138.832 20.1178C139.647 20.7981 140.096 21.7214 140.179 22.8876H137.402C137.361 22.4294 137.168 22.0685 136.822 21.8047C136.491 21.527 136.042 21.3882 135.475 21.3882C134.95 21.3882 134.543 21.4854 134.252 21.6797C133.976 21.8742 133.838 22.1449 133.838 22.4919C133.838 22.8807 134.032 23.1791 134.418 23.3874C134.805 23.5818 135.406 23.7831 136.222 23.9913C137.05 24.1996 137.733 24.4148 138.272 24.6369C138.811 24.859 139.274 25.2061 139.661 25.6781C140.062 26.1363 140.268 26.7472 140.282 27.5108C140.282 28.1771 140.096 28.7741 139.723 29.3017C139.364 29.8293 138.839 30.2458 138.148 30.5512C137.471 30.8427 136.677 30.9885 135.765 30.9885Z" fill="#4C89B9"/>
<path d="M147.057 30.9885C146.118 30.9885 145.275 30.822 144.529 30.4887C143.783 30.1417 143.189 29.6765 142.747 29.0934C142.318 28.5104 142.084 27.8647 142.043 27.1567H144.965C145.019 27.601 145.234 27.9689 145.607 28.2605C145.993 28.552 146.47 28.6978 147.037 28.6978C147.589 28.6978 148.017 28.5867 148.322 28.3645C148.639 28.1425 148.798 27.8578 148.798 27.5108C148.798 27.1359 148.604 26.8582 148.218 26.6777C147.845 26.4834 147.244 26.2751 146.414 26.053C145.558 25.8447 144.853 25.6296 144.302 25.4074C143.763 25.1853 143.292 24.8451 142.893 24.387C142.506 23.9288 142.312 23.3111 142.312 22.5336C142.312 21.895 142.492 21.3119 142.851 20.7843C143.224 20.2568 143.749 19.8402 144.426 19.5348C145.116 19.2293 145.925 19.0767 146.85 19.0767C148.218 19.0767 149.309 19.4237 150.124 20.1178C150.939 20.7981 151.388 21.7214 151.47 22.8876H148.694C148.653 22.4294 148.46 22.0685 148.114 21.8047C147.783 21.527 147.334 21.3882 146.767 21.3882C146.242 21.3882 145.835 21.4854 145.544 21.6797C145.268 21.8742 145.13 22.1449 145.13 22.4919C145.13 22.8807 145.324 23.1791 145.71 23.3874C146.097 23.5818 146.698 23.7831 147.513 23.9913C148.342 24.1996 149.025 24.4148 149.564 24.6369C150.103 24.859 150.566 25.2061 150.953 25.6781C151.354 26.1363 151.56 26.7472 151.574 27.5108C151.574 28.1771 151.388 28.7741 151.015 29.3017C150.656 29.8293 150.131 30.2458 149.44 30.5512C148.763 30.8427 147.969 30.9885 147.057 30.9885Z" fill="#4C89B9"/>
</svg>
