<svg width="161" height="46" viewBox="0 0 161 46" fill="none" xmlns="http://www.w3.org/2000/svg">
<path fill-rule="evenodd" clip-rule="evenodd" d="M30.2669 7.06225C29.8666 6.97925 29.4537 6.97925 29.0534 7.06225C28.5906 7.15818 28.1771 7.3917 27.8482 7.57736L27.7585 7.62783L16.6145 13.8688C16.5837 13.8861 16.5519 13.9037 16.5193 13.9218C16.1712 14.1151 15.7336 14.3581 15.3975 14.7257C15.107 15.0436 14.8871 15.4203 14.7526 15.8307C14.5969 16.3054 14.5988 16.809 14.6003 17.2097C14.6004 17.2471 14.6005 17.2836 14.6005 17.3191V29.6417C14.6005 29.6772 14.6004 29.7137 14.6003 29.7512C14.5988 30.1517 14.5969 30.6554 14.7526 31.1301C14.8871 31.5406 15.107 31.9172 15.3975 32.2351C15.7336 32.6027 16.1713 32.8458 16.5193 33.0391C16.5519 33.0571 16.5837 33.0747 16.6145 33.092L27.7585 39.333L27.8482 39.3834C28.1771 39.5691 28.5906 39.8026 29.0534 39.8986C29.4537 39.9815 29.8666 39.9815 30.2669 39.8986C30.7296 39.8026 31.1432 39.5691 31.4721 39.3834L31.5616 39.333L42.7058 33.092C42.7194 33.0844 42.7332 33.0766 42.7472 33.0688C42.7648 33.059 42.7827 33.0491 42.8008 33.0391C43.1489 32.8458 43.5866 32.6027 43.9227 32.2351C44.2133 31.9172 44.4332 31.5406 44.5677 31.1301C44.7233 30.6554 44.7215 30.1517 44.72 29.7512C44.7199 29.7137 44.7198 29.6772 44.7198 29.6417V17.3191C44.7198 17.2836 44.7199 17.2472 44.72 17.2097C44.7215 16.809 44.7233 16.3054 44.5677 15.8307C44.4332 15.4203 44.2133 15.0436 43.9227 14.7257C43.5866 14.3581 43.1489 14.1151 42.8008 13.9218L42.7996 13.9211C42.7676 13.9032 42.7362 13.8859 42.7058 13.8688L31.5616 7.62783L31.4721 7.57736C31.1432 7.3917 30.7296 7.15818 30.2669 7.06225ZM29.2213 10.2819C29.4496 10.1541 29.566 10.0895 29.6529 10.0473L29.6601 10.0438L29.6673 10.0473C29.7542 10.0895 29.8707 10.1541 30.099 10.2819L40.1128 15.8899L29.6601 21.7437L19.2075 15.8899L29.2213 10.2819ZM17.6125 18.47L28.1542 24.3736V36.0812L18.0771 30.4379C17.8363 30.303 17.7133 30.2334 17.627 30.1779L17.6197 30.1733L17.6191 30.1646C17.613 30.0616 17.6125 29.9195 17.6125 29.6417V18.47Z" fill="#015694"/>
<path d="M58.4259 28.5537H63.2198V31.4015H54.7662V16.2568H58.4259V28.5537Z" fill="#015694"/>
<path d="M66.592 18.1141C65.9499 18.1141 65.422 17.9272 65.0082 17.5533C64.6088 17.1649 64.409 16.6903 64.409 16.1294C64.409 15.5541 64.6088 15.0795 65.0082 14.7056C65.422 14.3172 65.9499 14.123 66.592 14.123C67.2198 14.123 67.7334 14.3172 68.1329 14.7056C68.5467 15.0795 68.7535 15.5541 68.7535 16.1294C68.7535 16.6903 68.5467 17.1649 68.1329 17.5533C67.7334 17.9272 67.2198 18.1141 66.592 18.1141ZM68.4111 19.3655V31.4035H64.7514V19.3655H68.4111Z" fill="#015694"/>
<path d="M75.3862 19.1914C76.228 19.1914 76.9628 19.364 77.5906 19.7092C78.2326 20.0544 78.7248 20.5074 79.0673 21.0682V19.364H82.7268V31.3805C82.7268 32.4879 82.5057 33.4875 82.0635 34.3792C81.6354 35.2853 80.9719 36.0044 80.0731 36.5366C79.1885 37.0687 78.0828 37.3348 76.756 37.3348C74.9867 37.3348 73.5528 36.9105 72.4542 36.0619C71.3557 35.2277 70.7279 34.0916 70.5709 32.6533H74.1877C74.3019 33.1136 74.573 33.4731 75.001 33.732C75.429 34.0053 75.9569 34.1419 76.5847 34.1419C77.3409 34.1419 77.9402 33.919 78.3824 33.4731C78.839 33.0416 79.0673 32.344 79.0673 31.3805V29.6761C78.7106 30.2371 78.2184 30.6973 77.5906 31.0568C76.9628 31.402 76.228 31.5746 75.3862 31.5746C74.4017 31.5746 73.51 31.3229 72.711 30.8195C71.9121 30.3017 71.2772 29.5755 70.8063 28.6406C70.3498 27.6914 70.1215 26.5983 70.1215 25.3614C70.1215 24.1245 70.3498 23.0387 70.8063 22.1038C71.2772 21.169 71.9121 20.4498 72.711 19.9464C73.51 19.4431 74.4017 19.1914 75.3862 19.1914ZM79.0673 25.383C79.0673 24.4625 78.8105 23.7362 78.2968 23.204C77.7974 22.672 77.1839 22.4058 76.4562 22.4058C75.7286 22.4058 75.108 22.672 74.5944 23.204C74.095 23.7218 73.8453 24.4409 73.8453 25.3614C73.8453 26.2819 74.095 27.0154 74.5944 27.562C75.108 28.0941 75.7286 28.3602 76.4562 28.3602C77.1839 28.3602 77.7974 28.0941 78.2968 27.562C78.8105 27.0298 79.0673 26.3034 79.0673 25.383Z" fill="#015694"/>
<path d="M92.501 19.2359C93.8706 19.2359 94.9693 19.6962 95.7968 20.6166C96.6243 21.5228 97.0381 22.774 97.0381 24.3705V31.4034H93.3999V24.8666C93.3999 24.0612 93.193 23.4356 92.7792 22.9898C92.3654 22.5439 91.809 22.321 91.11 22.321C90.4108 22.321 89.8544 22.5439 89.4406 22.9898C89.0269 23.4356 88.8199 24.0612 88.8199 24.8666V31.4034H85.1603V15.439H88.8199V20.9834C89.1909 20.4513 89.6974 20.027 90.3394 19.7106C90.9815 19.3942 91.7021 19.2359 92.501 19.2359Z" fill="#015694"/>
<path d="M106.023 28.275V31.4032H104.161C102.834 31.4032 101.799 31.0796 101.057 30.4324C100.316 29.7708 99.9446 28.6993 99.9446 27.218V22.4286H98.4893V19.3652H99.9446V16.4312H103.604V19.3652H106.001V22.4286H103.604V27.2611C103.604 27.6207 103.69 27.8795 103.861 28.0377C104.032 28.196 104.318 28.275 104.717 28.275H106.023Z" fill="#015694"/>
<path d="M111.507 21.0697C111.849 20.5088 112.341 20.0558 112.984 19.7106C113.625 19.3654 114.36 19.1928 115.188 19.1928C116.172 19.1928 117.064 19.4445 117.863 19.9478C118.662 20.4513 119.29 21.1704 119.746 22.1052C120.217 23.0401 120.453 24.1259 120.453 25.3628C120.453 26.5997 120.217 27.6928 119.746 28.642C119.29 29.5769 118.662 30.3032 117.863 30.8209C117.064 31.3244 116.172 31.576 115.188 31.576C114.346 31.576 113.611 31.4107 112.984 31.0798C112.356 30.7346 111.863 30.2816 111.507 29.7208V31.4034H107.847V15.439H111.507V21.0697ZM116.729 25.3628C116.729 24.4424 116.471 23.7232 115.958 23.2055C115.459 22.6734 114.838 22.4073 114.096 22.4073C113.369 22.4073 112.748 22.6734 112.234 23.2055C111.735 23.7377 111.485 24.4639 111.485 25.3844C111.485 26.3048 111.735 27.0312 112.234 27.5634C112.748 28.0955 113.369 28.3616 114.096 28.3616C114.824 28.3616 115.445 28.0955 115.958 27.5634C116.471 27.0169 116.729 26.2833 116.729 25.3628Z" fill="#015694"/>
<path d="M127.594 31.5746C126.425 31.5746 125.369 31.3229 124.427 30.8195C123.5 30.3162 122.765 29.597 122.223 28.6621C121.695 27.7273 121.431 26.6343 121.431 25.3829C121.431 24.1461 121.702 23.0602 122.244 22.1254C122.786 21.1762 123.529 20.4498 124.47 19.9464C125.412 19.4431 126.467 19.1914 127.638 19.1914C128.807 19.1914 129.863 19.4431 130.804 19.9464C131.746 20.4498 132.488 21.1762 133.03 22.1254C133.573 23.0602 133.843 24.1461 133.843 25.3829C133.843 26.6198 133.566 27.7129 133.009 28.6621C132.466 29.597 131.718 30.3162 130.762 30.8195C129.82 31.3229 128.765 31.5746 127.594 31.5746ZM127.594 28.3817C128.294 28.3817 128.885 28.1228 129.371 27.6051C129.87 27.0873 130.119 26.3466 130.119 25.3829C130.119 24.4194 129.878 23.6787 129.392 23.161C128.921 22.6432 128.336 22.3843 127.638 22.3843C126.924 22.3843 126.331 22.6432 125.861 23.161C125.39 23.6643 125.155 24.4049 125.155 25.3829C125.155 26.3466 125.383 27.0873 125.84 27.6051C126.311 28.1228 126.895 28.3817 127.594 28.3817Z" fill="#015694"/>
<path d="M142.633 31.4028L140.343 28.0588L138.417 31.4028H134.457L138.396 25.2543L134.35 19.3647H138.46L140.75 22.687L142.676 19.3647H146.636L142.633 25.4269L146.743 31.4028H142.633Z" fill="#015694"/>
</svg>
