<svg width="1440" height="46" viewBox="0 0 1440 46" fill="none" xmlns="http://www.w3.org/2000/svg">
<path d="M0 0H1440V46L1432.94 39.1015C1430.61 36.8215 1426.89 36.8215 1424.56 39.1015L1421.69 41.8985C1419.36 44.1785 1415.64 44.1785 1413.31 41.8985L1410.44 39.1015C1408.11 36.8215 1404.39 36.8215 1402.06 39.1015L1399.19 41.8985C1396.86 44.1785 1393.14 44.1785 1390.81 41.8985L1387.94 39.1015C1385.61 36.8215 1381.89 36.8215 1379.56 39.1015L1376.69 41.8985C1374.36 44.1785 1370.64 44.1785 1368.31 41.8985L1365.44 39.1015C1363.11 36.8215 1359.39 36.8215 1357.06 39.1015L1354.19 41.8985C1351.86 44.1785 1348.14 44.1785 1345.81 41.8985L1342.94 39.1015C1340.61 36.8215 1336.89 36.8215 1334.56 39.1015L1331.69 41.8985C1329.36 44.1785 1325.64 44.1785 1323.31 41.8985L1320.44 39.1015C1318.11 36.8215 1314.39 36.8215 1312.06 39.1015L1309.19 41.8985C1306.86 44.1785 1303.14 44.1785 1300.81 41.8985L1297.94 39.1015C1295.61 36.8215 1291.89 36.8215 1289.56 39.1015L1286.69 41.8985C1284.36 44.1785 1280.64 44.1785 1278.31 41.8985L1275.44 39.1015C1273.11 36.8215 1269.39 36.8215 1267.06 39.1015L1264.19 41.8985C1261.86 44.1785 1258.14 44.1785 1255.81 41.8985L1252.94 39.1015C1250.61 36.8215 1246.89 36.8215 1244.56 39.1015L1241.69 41.8985C1239.36 44.1785 1235.64 44.1785 1233.31 41.8985L1230.44 39.1015C1228.11 36.8215 1224.39 36.8215 1222.06 39.1015L1219.19 41.8985C1216.86 44.1785 1213.14 44.1785 1210.81 41.8985L1207.94 39.1015C1205.61 36.8215 1201.89 36.8215 1199.56 39.1015L1196.69 41.8985C1194.36 44.1785 1190.64 44.1785 1188.31 41.8985L1185.44 39.1015C1183.11 36.8215 1179.39 36.8215 1177.06 39.1015L1174.19 41.8985C1171.86 44.1785 1168.14 44.1785 1165.81 41.8985L1162.94 39.1015C1160.61 36.8215 1156.89 36.8215 1154.56 39.1015L1151.69 41.8985C1149.36 44.1785 1145.64 44.1785 1143.31 41.8985L1140.44 39.1015C1138.11 36.8215 1134.39 36.8215 1132.06 39.1015L1129.19 41.8985C1126.86 44.1785 1123.14 44.1785 1120.81 41.8985L1117.94 39.1015C1115.61 36.8215 1111.89 36.8215 1109.56 39.1015L1106.69 41.8985C1104.36 44.1785 1100.64 44.1785 1098.31 41.8985L1095.44 39.1015C1093.11 36.8215 1089.39 36.8215 1087.06 39.1015L1084.19 41.8985C1081.86 44.1785 1078.14 44.1785 1075.81 41.8985L1072.94 39.1015C1070.61 36.8215 1066.89 36.8215 1064.56 39.1015L1061.69 41.8985C1059.36 44.1785 1055.64 44.1785 1053.31 41.8985L1050.44 39.1015C1048.11 36.8215 1044.39 36.8215 1042.06 39.1015L1039.19 41.8985C1036.86 44.1785 1033.14 44.1785 1030.81 41.8985L1027.94 39.1015C1025.61 36.8215 1021.89 36.8215 1019.56 39.1015L1016.69 41.8985C1014.36 44.1785 1010.64 44.1785 1008.31 41.8985L1005.44 39.1015C1003.11 36.8215 999.387 36.8215 997.055 39.1015L994.195 41.8985C991.863 44.1785 988.137 44.1785 985.805 41.8985L982.945 39.1015C980.613 36.8215 976.887 36.8215 974.555 39.1015L971.695 41.8985C969.363 44.1785 965.637 44.1785 963.305 41.8985L960.445 39.1015C958.113 36.8215 954.387 36.8215 952.055 39.1015L949.195 41.8985C946.863 44.1785 943.137 44.1785 940.805 41.8985L937.945 39.1015C935.613 36.8215 931.887 36.8215 929.555 39.1015L926.695 41.8985C924.363 44.1785 920.637 44.1785 918.305 41.8985L915.445 39.1015C913.113 36.8215 909.387 36.8215 907.055 39.1015L904.195 41.8985C901.863 44.1785 898.137 44.1785 895.805 41.8985L892.945 39.1015C890.613 36.8215 886.887 36.8215 884.555 39.1015L881.695 41.8985C879.363 44.1785 875.637 44.1785 873.305 41.8985L870.445 39.1015C868.113 36.8215 864.387 36.8215 862.055 39.1015L859.195 41.8985C856.863 44.1785 853.137 44.1785 850.805 41.8985L847.945 39.1015C845.613 36.8215 841.887 36.8215 839.555 39.1015L836.695 41.8985C834.363 44.1785 830.637 44.1785 828.305 41.8985L825.445 39.1015C823.113 36.8215 819.387 36.8215 817.055 39.1015L814.195 41.8985C811.863 44.1785 808.137 44.1785 805.805 41.8985L802.945 39.1015C800.613 36.8215 796.887 36.8215 794.555 39.1015L791.695 41.8985C789.363 44.1785 785.637 44.1785 783.305 41.8985L780.445 39.1015C778.113 36.8215 774.387 36.8215 772.055 39.1015L769.195 41.8985C766.863 44.1785 763.137 44.1785 760.805 41.8985L757.945 39.1015C755.613 36.8215 751.887 36.8215 749.555 39.1015L746.695 41.8985C744.363 44.1785 740.637 44.1785 738.305 41.8985L735.445 39.1015C733.113 36.8215 729.387 36.8215 727.055 39.1015L724.195 41.8985C721.863 44.1785 718.137 44.1785 715.805 41.8985L712.945 39.1015C710.613 36.8215 706.887 36.8215 704.555 39.1015L701.695 41.8985C699.363 44.1785 695.637 44.1785 693.305 41.8985L690.445 39.1015C688.113 36.8215 684.387 36.8215 682.055 39.1015L679.195 41.8985C676.863 44.1785 673.137 44.1785 670.805 41.8985L667.945 39.1015C665.613 36.8215 661.887 36.8215 659.555 39.1015L656.695 41.8985C654.363 44.1785 650.637 44.1785 648.305 41.8985L645.445 39.1015C643.113 36.8215 639.387 36.8215 637.055 39.1015L634.195 41.8985C631.863 44.1785 628.137 44.1785 625.805 41.8985L622.945 39.1015C620.613 36.8215 616.887 36.8215 614.555 39.1015L611.695 41.8985C609.363 44.1785 605.637 44.1785 603.305 41.8985L600.445 39.1015C598.113 36.8215 594.387 36.8215 592.055 39.1015L589.195 41.8985C586.863 44.1785 583.137 44.1785 580.805 41.8985L577.945 39.1015C575.613 36.8215 571.887 36.8215 569.555 39.1015L566.695 41.8985C564.363 44.1785 560.637 44.1785 558.305 41.8985L555.445 39.1015C553.113 36.8215 549.387 36.8215 547.055 39.1015L544.195 41.8985C541.863 44.1785 538.137 44.1785 535.805 41.8985L532.945 39.1015C530.613 36.8215 526.887 36.8215 524.555 39.1015L521.695 41.8985C519.363 44.1785 515.637 44.1785 513.305 41.8985L510.445 39.1015C508.113 36.8215 504.387 36.8215 502.055 39.1015L499.195 41.8985C496.863 44.1785 493.137 44.1785 490.805 41.8985L487.945 39.1015C485.613 36.8215 481.887 36.8215 479.555 39.1015L476.695 41.8985C474.363 44.1785 470.637 44.1785 468.305 41.8985L465.445 39.1015C463.113 36.8215 459.387 36.8215 457.055 39.1015L454.195 41.8985C451.863 44.1785 448.137 44.1785 445.805 41.8985L442.945 39.1015C440.613 36.8215 436.887 36.8215 434.555 39.1015L431.695 41.8985C429.363 44.1785 425.637 44.1785 423.305 41.8985L420.445 39.1015C418.113 36.8215 414.387 36.8215 412.055 39.1015L409.195 41.8985C406.863 44.1785 403.137 44.1785 400.805 41.8985L397.945 39.1015C395.613 36.8215 391.887 36.8215 389.555 39.1015L386.695 41.8985C384.363 44.1785 380.637 44.1785 378.305 41.8985L375.445 39.1015C373.113 36.8215 369.387 36.8215 367.055 39.1015L364.195 41.8985C361.863 44.1785 358.137 44.1785 355.805 41.8985L352.945 39.1015C350.613 36.8215 346.887 36.8215 344.555 39.1015L341.695 41.8985C339.363 44.1785 335.637 44.1785 333.305 41.8985L330.445 39.1015C328.113 36.8215 324.387 36.8215 322.055 39.1015L319.195 41.8985C316.863 44.1785 313.137 44.1785 310.805 41.8985L307.945 39.1015C305.613 36.8215 301.887 36.8215 299.555 39.1015L296.695 41.8985C294.363 44.1785 290.637 44.1785 288.305 41.8985L285.445 39.1015C283.113 36.8215 279.387 36.8215 277.055 39.1015L274.195 41.8985C271.863 44.1785 268.137 44.1785 265.805 41.8985L262.945 39.1015C260.613 36.8215 256.887 36.8215 254.555 39.1015L251.695 41.8985C249.363 44.1785 245.637 44.1785 243.305 41.8985L240.445 39.1015C238.113 36.8215 234.387 36.8215 232.055 39.1015L229.195 41.8985C226.863 44.1785 223.137 44.1785 220.805 41.8985L217.945 39.1015C215.613 36.8215 211.887 36.8215 209.555 39.1015L206.695 41.8985C204.363 44.1785 200.637 44.1785 198.305 41.8985L195.445 39.1015C193.113 36.8215 189.387 36.8215 187.055 39.1015L184.195 41.8985C181.863 44.1785 178.137 44.1785 175.805 41.8985L172.945 39.1015C170.613 36.8215 166.887 36.8215 164.555 39.1015L161.695 41.8985C159.363 44.1785 155.637 44.1785 153.305 41.8985L150.445 39.1015C148.113 36.8215 144.387 36.8215 142.055 39.1015L139.195 41.8985C136.863 44.1785 133.137 44.1785 130.805 41.8985L127.945 39.1015C125.613 36.8215 121.887 36.8215 119.555 39.1015L116.695 41.8985C114.363 44.1785 110.637 44.1785 108.305 41.8985L105.445 39.1015C103.113 36.8215 99.3871 36.8215 97.0553 39.1015L94.1947 41.8985C91.8629 44.1785 88.1371 44.1785 85.8053 41.8985L82.9447 39.1015C80.6129 36.8215 76.8871 36.8215 74.5553 39.1015L71.6947 41.8985C69.3629 44.1785 65.6371 44.1785 63.3053 41.8985L60.4447 39.1015C58.1129 36.8215 54.3871 36.8215 52.0553 39.1015L49.1947 41.8985C46.8629 44.1785 43.1371 44.1785 40.8053 41.8985L37.9447 39.1015C35.6129 36.8215 31.8871 36.8215 29.5553 39.1015L26.6947 41.8985C24.3629 44.1785 20.6371 44.1785 18.3053 41.8985L15.4447 39.1015C13.1129 36.8215 9.38706 36.8215 7.05529 39.1015L0 46V0Z" fill="#F4765B"/>
</svg>
