<svg width="40" height="40" viewBox="0 0 40 40" fill="none" xmlns="http://www.w3.org/2000/svg">
<path d="M30.0104 11.6694V8.33472C30.0104 6.49229 28.5181 5 26.6757 5H8.33472C6.49229 5 5 6.49229 5 8.33472V16.6715C5 18.514 6.49229 20.0062 8.33472 20.0062H11.6694" stroke="black" stroke-linecap="round" stroke-linejoin="round"/>
<path d="M16.8566 28.528H29.8253" stroke="black" stroke-linecap="round" stroke-linejoin="round"/>
<path d="M16.8566 23.341H29.8253" stroke="black" stroke-linecap="round" stroke-linejoin="round"/>
<path d="M16.8566 18.154H29.8253" stroke="black" stroke-linecap="round" stroke-linejoin="round"/>
<path fill-rule="evenodd" clip-rule="evenodd" d="M32.4181 35.012H14.2638C12.8299 35.012 11.6694 33.8515 11.6694 32.4176V14.2634C11.6694 12.8294 12.8299 11.6689 14.2638 11.6689H32.4197C33.852 11.6689 35.0125 12.8294 35.0125 14.2634V32.4193C35.0125 33.8515 33.852 35.012 32.4181 35.012Z" stroke="black" stroke-linecap="round" stroke-linejoin="round"/>
</svg>
